<?xml version="1.0" encoding="UTF-8"?>
<svg id="Layer_1" xmlns="http://www.w3.org/2000/svg" xmlns:xlink="http://www.w3.org/1999/xlink" version="1.1" viewBox="0 0 32 32">
  <!-- Generator: Adobe Illustrator 30.2.1, SVG Export Plug-In . SVG Version: 2.1.1 Build 1)  -->
  <defs>
    <style>
      .st0 {
        fill: none;
      }

      .st1 {
        fill: #fff;
      }

      .st2 {
        fill: #fcb041;
      }

      .st3 {
        clip-path: url(#clippath);
      }
    </style>
    <clipPath id="clippath">
      <rect class="st0" x="2.74" y=".61" width="27.49" height="30.59"/>
    </clipPath>
  </defs>
  <g class="st3">
    <g>
      <polygon points="14.7 2.36 16.64 3.03 16.49 3.47 14.66 2.81 14.7 2.36"/>
      <g>
        <polygon points="14.69 2.36 15.25 2.56 15.27 35.35 14.69 35.35 14.69 2.36"/>
        <polygon points="16.06 35.35 16.09 2.83 16.64 3.03 16.66 35.36 16.06 35.35"/>
        <g>
          <path class="st2" d="M22.79,21.8l.71-1.72-5.53-7.54v22.82h-1.31l-.02-32.33c2.07.33,3.88,1.29,5.13,2.77l3.54,5.26,5.17,7.59-1.85,3.15h-5.84Z"/>
          <rect class="st2" x="13.87" y="2.36" width=".84" height="32.99"/>
          <polygon class="st2" points="16.09 2.83 16.09 35.35 15.25 35.35 15.25 2.56 16.09 2.83"/>
          <path class="st2" d="M25.73,27.36l-4.53-2.52.77-2.5h7.46s-3.71,5.01-3.71,5.01ZM23.18,23.77c0-.22-.19-.41-.43-.41s-.43.18-.43.41.19.41.43.41.43-.18.43-.41Z"/>
          <ellipse class="st1" cx="22.75" cy="23.77" rx=".43" ry=".41"/>
          <path d="M7.32,35.35V4.72s3.72,3.17,3.72,3.17c.85-1.91,1.23-3.89,2.25-5.81l.02,33.27h-6ZM9.31,8.47c0-.22-.19-.41-.43-.41s-.43.18-.43.41.19.41.43.41.43-.18.43-.41ZM9.31,13.15c0-.22-.19-.41-.43-.41s-.43.18-.43.41.19.41.43.41.43-.18.43-.41ZM9.31,17.84c0-.22-.19-.41-.43-.41s-.43.18-.43.41.19.41.43.41.43-.18.43-.41ZM9.31,22.53c0-.23-.19-.41-.43-.41s-.43.18-.43.41.19.41.43.41.43-.18.43-.41ZM9.31,27.21c0-.23-.19-.41-.43-.41s-.43.18-.43.41.19.41.43.41.43-.18.43-.41ZM9.31,31.9c0-.22-.19-.41-.43-.41s-.43.18-.43.41.19.41.43.41.43-.18.43-.41Z"/>
          <path d="M10.81,6.79l-2.99-2.61c1.52-.58,3.02-1.5,3.51-3.04l1.34.45-1.87,5.2Z"/>
          <ellipse class="st1" cx="8.88" cy="8.47" rx=".43" ry=".41"/>
          <ellipse class="st1" cx="8.88" cy="13.15" rx=".43" ry=".41"/>
          <ellipse class="st1" cx="8.88" cy="17.84" rx=".43" ry=".41"/>
          <ellipse class="st1" cx="8.88" cy="27.21" rx=".43" ry=".41"/>
          <ellipse class="st1" cx="8.88" cy="31.9" rx=".43" ry=".41"/>
          <ellipse class="st1" cx="8.88" cy="22.53" rx=".43" ry=".41"/>
        </g>
      </g>
    </g>
  </g>
</svg>